<svg width="103" height="24" xmlns="http://www.w3.org/2000/svg" xmlns:xlink="http://www.w3.org/1999/xlink"><defs><filter x="-.5%" y="-2.1%" width="101%" height="108.3%" filterUnits="objectBoundingBox" id="a"><feOffset dy="1" in="SourceAlpha" result="shadowOffsetOuter1"/><feColorMatrix values="0 0 0 0 0 0 0 0 0 0 0 0 0 0 0 0 0 0 0.3 0" in="shadowOffsetOuter1" result="shadowMatrixOuter1"/><feMerge><feMergeNode in="shadowMatrixOuter1"/><feMergeNode in="SourceGraphic"/></feMerge></filter><path id="b" d="M.358.478h13.55v5.495H.358z"/><path id="d" d="M.256.21h8.178V12.21H.256z"/></defs><g filter="url(#a)" fill="none" fill-rule="evenodd"><path fill="#FEFEFE" d="M29 21h.76V3H29zM13.693 11.149a.645.645 0 0 0 0 .916l2.256 2.248-1.737 1.732-2.253-2.246a.651.651 0 0 0-.923 0L8.78 16.045l-1.736-1.732L9.3 12.065a.645.645 0 0 0 0-.916l-2.256-2.25L8.78 7.17l2.255 2.246a.674.674 0 0 0 .923 0l2.253-2.246 1.737 1.73-2.256 2.25zm3.64-2.707l-2.658-2.649a.674.674 0 0 0-.924 0L11.497 8.04 9.242 5.793a.673.673 0 0 0-.922 0l-2.658 2.65a.644.644 0 0 0 0 .914l2.256 2.25-2.256 2.248a.645.645 0 0 0 0 .916l2.658 2.65a.652.652 0 0 0 .922 0l2.255-2.247 2.254 2.246a.652.652 0 0 0 .924 0l2.657-2.65a.645.645 0 0 0 0-.915l-2.256-2.248 2.256-2.25a.644.644 0 0 0 0-.915zM4.007 20.036a.844.844 0 0 1-.845-.84.844.844 0 1 1 1.69 0c0 .463-.379.84-.845.84m0-2.49c-.111 0-.22.011-.325.032a9.683 9.683 0 0 1-2.052-5.971c0-1.241.229-2.45.68-3.592a.808.808 0 0 0-.458-1.051.816.816 0 0 0-1.057.456A11.338 11.338 0 0 0 0 11.607c0 2.588.871 5.03 2.452 7.031a1.627 1.627 0 0 0-.103.557c0 .91.744 1.65 1.658 1.65.915 0 1.66-.74 1.66-1.65 0-.91-.745-1.65-1.66-1.65"/><g transform="translate(6.865 17.067)"><mask id="c" fill="#fff"><use xlink:href="#b"/></mask><path d="M12.25 2.97a.844.844 0 0 1-.847-.841c0-.464.38-.842.846-.842.466 0 .845.378.845.842 0 .463-.379.84-.845.84m0-2.49c-.915 0-1.66.74-1.66 1.65 0 .068.013.134.021.2a9.809 9.809 0 0 1-5.977 2.024 9.893 9.893 0 0 1-3.196-.526.815.815 0 0 0-1.035.505A.809.809 0 0 0 .91 5.36c1.194.407 2.447.614 3.723.614 2.545 0 4.956-.83 6.946-2.34a1.656 1.656 0 0 0 2.329-1.506c0-.91-.744-1.65-1.659-1.65" fill="#FEFEFE" mask="url(#c)"/></g><path d="M18.268 4.067c0-.464.38-.84.846-.84.466 0 .845.376.845.84 0 .463-.379.84-.845.84a.844.844 0 0 1-.846-.84m2.378.632c.081-.195.127-.409.127-.632 0-.91-.744-1.65-1.659-1.65s-1.66.74-1.66 1.65c0 .91.745 1.65 1.66 1.65.083 0 .162-.013.243-.025a9.687 9.687 0 0 1 2.007 5.915c0 1.32-.26 2.603-.77 3.81a.807.807 0 0 0 .434 1.06.814.814 0 0 0 1.067-.43c.596-1.408.9-2.902.9-4.44 0-2.533-.832-4.93-2.35-6.908M4.007 3.226c.466 0 .846.377.846.84 0 .464-.38.841-.846.841a.844.844 0 0 1-.845-.84c0-.464.38-.841.845-.841m0 2.49c.915 0 1.66-.74 1.66-1.65 0-.116-.014-.23-.037-.34a9.82 9.82 0 0 1 5.868-1.932c1.113 0 2.207.183 3.25.545a.82.82 0 0 0 1.037-.5.81.81 0 0 0-.502-1.031 11.537 11.537 0 0 0-3.785-.634c-2.548 0-4.96.83-6.95 2.341a1.632 1.632 0 0 0-.54-.098c-.915 0-1.66.74-1.66 1.65 0 .91.745 1.65 1.66 1.65M44.376 14.831c.59 0 .992.612.743 1.143a4.03 4.03 0 0 1-1.08 1.42c-.744.593-1.623.887-2.64.887-.918-.021-1.685-.252-2.299-.691-.625-.422-1.08-.91-1.362-1.464a12.39 12.39 0 0 1-.232-.518 3.505 3.505 0 0 1-.16-.643c-.08-.483-.12-1.41-.12-2.782 0-1.393.04-2.327.12-2.797.085-.473.216-.854.392-1.145.283-.553.737-1.047 1.364-1.482.613-.437 1.38-.663 2.3-.675 1.128.012 2.046.354 2.757 1.029.42.4.749.858.985 1.372a.813.813 0 0 1-.741 1.15h-.233a.787.787 0 0 1-.71-.427 2.657 2.657 0 0 0-.62-.81c-.396-.325-.877-.493-1.445-.503-.417.01-.776.097-1.076.256-.304.165-.551.37-.738.618-.23.258-.383.591-.459.997-.085.43-.127 1.235-.127 2.417 0 1.182.042 1.982.127 2.4.076.418.229.756.46 1.014.187.248.433.448.737.603.3.18.66.272 1.077.272.873 0 1.553-.42 2.04-1.262a.789.789 0 0 1 .686-.379h.254zM50.285 12.184c0 1.18.043 1.981.129 2.4.074.416.227.755.458 1.013.186.248.432.448.738.603.3.181.658.272 1.076.272.423 0 .79-.09 1.1-.272.294-.155.53-.355.706-.603.231-.258.389-.597.474-1.014.08-.418.12-1.218.12-2.4s-.04-1.988-.12-2.417c-.085-.406-.243-.739-.474-.997a2.12 2.12 0 0 0-.706-.618 2.502 2.502 0 0 0-1.1-.255c-.418.009-.776.095-1.076.255a2.231 2.231 0 0 0-.738.618c-.231.258-.384.59-.458.997-.086.43-.13 1.235-.13 2.418m-1.77 0c0-1.397.041-2.33.122-2.805.085-.472.216-.855.393-1.146.283-.552.737-1.045 1.361-1.476.614-.437 1.381-.661 2.3-.672.93.01 1.703.236 2.324.675.614.433 1.057.927 1.33 1.481.197.291.333.672.408 1.144.069.472.104 1.405.104 2.799 0 1.37-.035 2.298-.104 2.781-.075.483-.21.87-.408 1.16-.273.555-.717 1.044-1.331 1.465-.62.44-1.394.67-2.323.691-.92-.02-1.686-.251-2.3-.69-.624-.422-1.079-.911-1.361-1.466-.086-.18-.163-.353-.233-.518a3.409 3.409 0 0 1-.16-.642c-.081-.483-.121-1.41-.121-2.781M61.925 6.184h.405a.81.81 0 0 1 .69.383l5.055 8.146h.031V6.99c0-.446.363-.806.811-.806h.148a.81.81 0 0 1 .812.806v10.386a.81.81 0 0 1-.812.807h-.412a.809.809 0 0 1-.69-.384l-5.048-8.147h-.032v7.724a.81.81 0 0 1-.81.807h-.148a.81.81 0 0 1-.811-.807V6.99c0-.446.363-.806.81-.806M75.747 7.796h-1.581a.809.809 0 0 1-.811-.806c0-.445.363-.806.81-.806h6.557c.448 0 .811.36.811.806a.809.809 0 0 1-.81.806h-1.584a.81.81 0 0 0-.812.807v8.773a.808.808 0 0 1-.81.806h-.148a.809.809 0 0 1-.81-.806V8.603a.809.809 0 0 0-.812-.807M87.366 14.946l-1.625 2.83a.812.812 0 0 1-.705.406h-.118a.806.806 0 0 1-.702-1.21l2.637-4.536a.802.802 0 0 0 .003-.802L84.94 8.217a.807.807 0 0 1 .706-1.206h.131c.294 0 .565.159.709.414l.878 1.656a.813.813 0 0 0 1.416 0l1.392-2.484a.81.81 0 0 1 .708-.413h.103a.806.806 0 0 1 .7 1.214l-2.493 4.226a.804.804 0 0 0 .003.821l2.22 3.61a.806.806 0 0 1-.696 1.219h-.105a.813.813 0 0 1-.704-.408l-1.132-1.92a.814.814 0 0 0-1.41 0" fill="#FEFEFE"/><g transform="translate(94.39 5.973)"><mask id="e" fill="#fff"><use xlink:href="#d"/></mask><path d="M2.648 1.823H1.067a.809.809 0 0 1-.811-.806c0-.446.363-.807.81-.807h6.557c.448 0 .811.361.811.807a.809.809 0 0 1-.81.806H6.04a.809.809 0 0 0-.81.806v8.774a.81.81 0 0 1-.812.806H4.27a.809.809 0 0 1-.81-.806V2.629a.809.809 0 0 0-.812-.806" fill="#FEFEFE" mask="url(#e)"/></g></g></svg>